<mxfile host="app.diagrams.net" modified="2022-04-02T13:29:29.522Z" agent="5.0 (Windows NT 6.1; Win64; x64) AppleWebKit/537.36 (KHTML, like Gecko) Chrome/99.0.4844.74 Safari/537.36" etag="j5Q1-H5DIeqNweIaeF8U" version="17.4.0" type="github">
  <diagram name="Page-1" id="7a6c530e-6e37-e111-ec74-82921da8cc10">
    <mxGraphModel dx="1240" dy="657" grid="1" gridSize="10" guides="1" tooltips="1" connect="1" arrows="1" fold="1" page="1" pageScale="1.5" pageWidth="1169" pageHeight="826" background="#184380" math="0" shadow="0">
      <root>
        <mxCell id="0" style=";html=1;" />
        <mxCell id="1" style=";html=1;" parent="0" />
        <mxCell id="23046e2b9bb16c14-116" value="" style="whiteSpace=wrap;html=1;rounded=1;shadow=0;strokeColor=none;strokeWidth=2;fillColor=#009BFF;fontSize=20;fontColor=#FFFFFF;align=center;arcSize=3;verticalAlign=top;spacingTop=4;" parent="1" vertex="1">
          <mxGeometry x="287" y="217" width="1180" height="550" as="geometry" />
        </mxCell>
        <mxCell id="23046e2b9bb16c14-64" value="" style="rounded=1;whiteSpace=wrap;html=1;shadow=0;strokeWidth=2;fillColor=#0072BC;fontSize=12;fontColor=#FFFFFF;align=center;strokeColor=none;arcSize=3;verticalAlign=top;" parent="1" vertex="1">
          <mxGeometry x="1120" y="291" width="316" height="420" as="geometry" />
        </mxCell>
        <mxCell id="23046e2b9bb16c14-28" value="" style="rounded=1;whiteSpace=wrap;html=1;shadow=0;strokeWidth=2;fillColor=#F04D22;fontSize=12;fontColor=#FFFFFF;align=center;strokeColor=none;arcSize=6;verticalAlign=top;" parent="1" vertex="1">
          <mxGeometry x="360" y="283" width="294" height="418" as="geometry" />
        </mxCell>
        <mxCell id="rh2e__Qxw752L9CsaWxn-1" value="" style="rounded=1;whiteSpace=wrap;html=1;shadow=0;strokeWidth=2;fillColor=#66CC00;fontSize=12;fontColor=#FFFFFF;align=center;strokeColor=none;arcSize=6;verticalAlign=top;" vertex="1" parent="1">
          <mxGeometry x="740" y="291" width="294" height="418" as="geometry" />
        </mxCell>
        <object label="" id="rh2e__Qxw752L9CsaWxn-4">
          <mxCell style="rounded=1;whiteSpace=wrap;html=1;fillColor=#66CC00;" vertex="1" parent="1">
            <mxGeometry x="390" y="500" width="220" height="180" as="geometry" />
          </mxCell>
        </object>
        <mxCell id="rh2e__Qxw752L9CsaWxn-5" value="main()" style="text;html=1;strokeColor=none;fillColor=none;align=center;verticalAlign=middle;whiteSpace=wrap;rounded=0;fontSize=17;" vertex="1" parent="1">
          <mxGeometry x="400" y="470" width="60" height="30" as="geometry" />
        </mxCell>
        <mxCell id="rh2e__Qxw752L9CsaWxn-6" value="栈stack" style="text;html=1;strokeColor=none;fillColor=none;align=center;verticalAlign=middle;whiteSpace=wrap;rounded=0;strokeWidth=5;fontSize=17;" vertex="1" parent="1">
          <mxGeometry x="460" y="253" width="60" height="30" as="geometry" />
        </mxCell>
        <mxCell id="rh2e__Qxw752L9CsaWxn-13" value="&lt;p class=&quot;MsoNormal&quot;&gt;&lt;span style=&quot;font-size: 10pt&quot;&gt;c1：0x11&lt;/span&gt;&lt;/p&gt;" style="text;html=1;strokeColor=none;fillColor=none;align=center;verticalAlign=middle;whiteSpace=wrap;rounded=0;fontSize=17;fontFamily=Comic Sans MS;" vertex="1" parent="1">
          <mxGeometry x="410" y="580" width="110" height="30" as="geometry" />
        </mxCell>
        <mxCell id="rh2e__Qxw752L9CsaWxn-14" value="&lt;p class=&quot;MsoNormal&quot;&gt;&lt;span style=&quot;font-size: 10pt&quot;&gt;c2：0x12&lt;/span&gt;&lt;/p&gt;" style="text;html=1;strokeColor=none;fillColor=none;align=center;verticalAlign=middle;whiteSpace=wrap;rounded=0;fontSize=17;fontFamily=Comic Sans MS;" vertex="1" parent="1">
          <mxGeometry x="410" y="615" width="110" height="30" as="geometry" />
        </mxCell>
        <mxCell id="rh2e__Qxw752L9CsaWxn-15" value="&lt;p class=&quot;MsoNormal&quot;&gt;&lt;span style=&quot;font-size: 10pt&quot;&gt;args：null&lt;/span&gt;&lt;/p&gt;" style="text;html=1;strokeColor=none;fillColor=none;align=center;verticalAlign=middle;whiteSpace=wrap;rounded=0;fontSize=17;fontFamily=Comic Sans MS;" vertex="1" parent="1">
          <mxGeometry x="410" y="550" width="110" height="30" as="geometry" />
        </mxCell>
        <mxCell id="rh2e__Qxw752L9CsaWxn-16" value="堆heep" style="text;html=1;strokeColor=none;fillColor=none;align=center;verticalAlign=middle;whiteSpace=wrap;rounded=0;strokeWidth=5;fontSize=17;" vertex="1" parent="1">
          <mxGeometry x="840" y="257" width="60" height="30" as="geometry" />
        </mxCell>
        <mxCell id="rh2e__Qxw752L9CsaWxn-17" value="方法区method" style="text;html=1;strokeColor=none;fillColor=none;align=center;verticalAlign=middle;whiteSpace=wrap;rounded=0;strokeWidth=5;fontSize=17;" vertex="1" parent="1">
          <mxGeometry x="1223" y="261" width="122" height="30" as="geometry" />
        </mxCell>
      </root>
    </mxGraphModel>
  </diagram>
</mxfile>
